<?xml version="1.0" encoding="UTF-8" standalone="no"?>
<!-- Created with Inkscape (http://www.inkscape.org/) -->

<svg
   xmlns:dc="http://purl.org/dc/elements/1.1/"
   xmlns:cc="http://creativecommons.org/ns#"
   xmlns:rdf="http://www.w3.org/1999/02/22-rdf-syntax-ns#"
   xmlns:svg="http://www.w3.org/2000/svg"
   xmlns="http://www.w3.org/2000/svg"
   xmlns:sodipodi="http://sodipodi.sourceforge.net/DTD/sodipodi-0.dtd"
   xmlns:inkscape="http://www.inkscape.org/namespaces/inkscape"
   width="400.00003mm"
   height="400.87595mm"
   viewBox="0 0 400.00003 400.87595"
   version="1.1"
   id="svg8"
   inkscape:version="0.92.3 (2405546, 2018-03-11)"
   sodipodi:docname="visualization wheel.svg">
  <defs
     id="defs2">
    <marker
       inkscape:isstock="true"
       style="overflow:visible"
       id="marker1525"
       refX="0"
       refY="0"
       orient="auto"
       inkscape:stockid="DotM">
      <path
         transform="matrix(0.4,0,0,0.4,2.96,0.4)"
         style="fill:#000000;fill-opacity:1;fill-rule:evenodd;stroke:#ff0000;stroke-width:1.00000003pt;stroke-opacity:1"
         d="m -2.5,-1 c 0,2.76 -2.24,5 -5,5 -2.76,0 -5,-2.24 -5,-5 0,-2.76 2.24,-5 5,-5 2.76,0 5,2.24 5,5 z"
         id="path1523"
         inkscape:connector-curvature="0" />
    </marker>
    <marker
       inkscape:isstock="true"
       style="overflow:visible"
       id="marker1317"
       refX="0"
       refY="0"
       orient="auto"
       inkscape:stockid="DotM">
      <path
         transform="matrix(0.4,0,0,0.4,2.96,0.4)"
         style="fill:#000000;fill-opacity:1;fill-rule:evenodd;stroke:#ff0000;stroke-width:1.00000003pt;stroke-opacity:1"
         d="m -2.5,-1 c 0,2.76 -2.24,5 -5,5 -2.76,0 -5,-2.24 -5,-5 0,-2.76 2.24,-5 5,-5 2.76,0 5,2.24 5,5 z"
         id="path1315"
         inkscape:connector-curvature="0" />
    </marker>
    <marker
       inkscape:isstock="true"
       style="overflow:visible"
       id="marker13986"
       refX="0"
       refY="0"
       orient="auto"
       inkscape:stockid="DotM">
      <path
         transform="matrix(0.4,0,0,0.4,2.96,0.4)"
         style="fill:#000000;fill-opacity:1;fill-rule:evenodd;stroke:#000000;stroke-width:1.00000003pt;stroke-opacity:1"
         d="m -2.5,-1 c 0,2.76 -2.24,5 -5,5 -2.76,0 -5,-2.24 -5,-5 0,-2.76 2.24,-5 5,-5 2.76,0 5,2.24 5,5 z"
         id="path13984"
         inkscape:connector-curvature="0" />
    </marker>
    <marker
       inkscape:isstock="true"
       style="overflow:visible"
       id="marker13790"
       refX="0"
       refY="0"
       orient="auto"
       inkscape:stockid="DotM">
      <path
         transform="matrix(0.4,0,0,0.4,2.96,0.4)"
         style="fill:#000000;fill-opacity:1;fill-rule:evenodd;stroke:#000000;stroke-width:1.00000003pt;stroke-opacity:1"
         d="m -2.5,-1 c 0,2.76 -2.24,5 -5,5 -2.76,0 -5,-2.24 -5,-5 0,-2.76 2.24,-5 5,-5 2.76,0 5,2.24 5,5 z"
         id="path13788"
         inkscape:connector-curvature="0" />
    </marker>
    <marker
       inkscape:isstock="true"
       style="overflow:visible"
       id="marker13478"
       refX="0"
       refY="0"
       orient="auto"
       inkscape:stockid="DotM">
      <path
         transform="matrix(0.4,0,0,0.4,2.96,0.4)"
         style="fill:#000000;fill-opacity:1;fill-rule:evenodd;stroke:#000000;stroke-width:1.00000003pt;stroke-opacity:1"
         d="m -2.5,-1 c 0,2.76 -2.24,5 -5,5 -2.76,0 -5,-2.24 -5,-5 0,-2.76 2.24,-5 5,-5 2.76,0 5,2.24 5,5 z"
         id="path13476"
         inkscape:connector-curvature="0" />
    </marker>
    <marker
       inkscape:isstock="true"
       style="overflow:visible"
       id="marker13294"
       refX="0"
       refY="0"
       orient="auto"
       inkscape:stockid="DotM">
      <path
         transform="matrix(0.4,0,0,0.4,2.96,0.4)"
         style="fill:#000000;fill-opacity:1;fill-rule:evenodd;stroke:#000000;stroke-width:1.00000003pt;stroke-opacity:1"
         d="m -2.5,-1 c 0,2.76 -2.24,5 -5,5 -2.76,0 -5,-2.24 -5,-5 0,-2.76 2.24,-5 5,-5 2.76,0 5,2.24 5,5 z"
         id="path13292"
         inkscape:connector-curvature="0" />
    </marker>
    <marker
       inkscape:isstock="true"
       style="overflow:visible"
       id="marker13030"
       refX="0"
       refY="0"
       orient="auto"
       inkscape:stockid="DotM">
      <path
         transform="matrix(0.4,0,0,0.4,2.96,0.4)"
         style="fill:#000000;fill-opacity:1;fill-rule:evenodd;stroke:#000000;stroke-width:1.00000003pt;stroke-opacity:1"
         d="m -2.5,-1 c 0,2.76 -2.24,5 -5,5 -2.76,0 -5,-2.24 -5,-5 0,-2.76 2.24,-5 5,-5 2.76,0 5,2.24 5,5 z"
         id="path13028"
         inkscape:connector-curvature="0" />
    </marker>
    <marker
       inkscape:isstock="true"
       style="overflow:visible"
       id="marker12858"
       refX="0"
       refY="0"
       orient="auto"
       inkscape:stockid="DotM">
      <path
         transform="matrix(0.4,0,0,0.4,2.96,0.4)"
         style="fill:#000000;fill-opacity:1;fill-rule:evenodd;stroke:#000000;stroke-width:1.00000003pt;stroke-opacity:1"
         d="m -2.5,-1 c 0,2.76 -2.24,5 -5,5 -2.76,0 -5,-2.24 -5,-5 0,-2.76 2.24,-5 5,-5 2.76,0 5,2.24 5,5 z"
         id="path12856"
         inkscape:connector-curvature="0" />
    </marker>
    <marker
       inkscape:isstock="true"
       style="overflow:visible"
       id="marker12630"
       refX="0"
       refY="0"
       orient="auto"
       inkscape:stockid="DotM">
      <path
         transform="matrix(0.4,0,0,0.4,2.96,0.4)"
         style="fill:#000000;fill-opacity:1;fill-rule:evenodd;stroke:#000000;stroke-width:1.00000003pt;stroke-opacity:1"
         d="m -2.5,-1 c 0,2.76 -2.24,5 -5,5 -2.76,0 -5,-2.24 -5,-5 0,-2.76 2.24,-5 5,-5 2.76,0 5,2.24 5,5 z"
         id="path12628"
         inkscape:connector-curvature="0" />
    </marker>
    <marker
       inkscape:isstock="true"
       style="overflow:visible"
       id="marker12470"
       refX="0"
       refY="0"
       orient="auto"
       inkscape:stockid="DotM">
      <path
         transform="matrix(0.4,0,0,0.4,2.96,0.4)"
         style="fill:#000000;fill-opacity:1;fill-rule:evenodd;stroke:#000000;stroke-width:1.00000003pt;stroke-opacity:1"
         d="m -2.5,-1 c 0,2.76 -2.24,5 -5,5 -2.76,0 -5,-2.24 -5,-5 0,-2.76 2.24,-5 5,-5 2.76,0 5,2.24 5,5 z"
         id="path12468"
         inkscape:connector-curvature="0" />
    </marker>
    <marker
       inkscape:stockid="DotM"
       orient="auto"
       refY="0"
       refX="0"
       id="marker12182"
       style="overflow:visible"
       inkscape:isstock="true"
       inkscape:collect="always">
      <path
         inkscape:connector-curvature="0"
         id="path12180"
         d="m -2.5,-1 c 0,2.76 -2.24,5 -5,5 -2.76,0 -5,-2.24 -5,-5 0,-2.76 2.24,-5 5,-5 2.76,0 5,2.24 5,5 z"
         style="fill:#000000;fill-opacity:1;fill-rule:evenodd;stroke:#000000;stroke-width:1.00000003pt;stroke-opacity:1"
         transform="matrix(0.4,0,0,0.4,2.96,0.4)" />
    </marker>
    <marker
       inkscape:stockid="DotM"
       orient="auto"
       refY="0"
       refX="0"
       id="marker12034"
       style="overflow:visible"
       inkscape:isstock="true"
       inkscape:collect="always">
      <path
         inkscape:connector-curvature="0"
         id="path12032"
         d="m -2.5,-1 c 0,2.76 -2.24,5 -5,5 -2.76,0 -5,-2.24 -5,-5 0,-2.76 2.24,-5 5,-5 2.76,0 5,2.24 5,5 z"
         style="fill:#000000;fill-opacity:1;fill-rule:evenodd;stroke:#000000;stroke-width:1.00000003pt;stroke-opacity:1"
         transform="matrix(0.4,0,0,0.4,2.96,0.4)" />
    </marker>
    <marker
       inkscape:stockid="DotM"
       orient="auto"
       refY="0"
       refX="0"
       id="marker7776"
       style="overflow:visible"
       inkscape:isstock="true">
      <path
         inkscape:connector-curvature="0"
         id="path7774"
         d="m -2.5,-1 c 0,2.76 -2.24,5 -5,5 -2.76,0 -5,-2.24 -5,-5 0,-2.76 2.24,-5 5,-5 2.76,0 5,2.24 5,5 z"
         style="fill:#000000;fill-opacity:1;fill-rule:evenodd;stroke:#000000;stroke-width:1.00000003pt;stroke-opacity:1"
         transform="matrix(0.4,0,0,0.4,2.96,0.4)" />
    </marker>
    <marker
       inkscape:stockid="SquareL"
       orient="auto"
       refY="0.0"
       refX="0.0"
       id="SquareL"
       style="overflow:visible"
       inkscape:isstock="true">
      <path
         id="path1224"
         d="M -5.0,-5.0 L -5.0,5.0 L 5.0,5.0 L 5.0,-5.0 L -5.0,-5.0 z "
         style="fill-rule:evenodd;stroke:#000000;stroke-width:1pt;stroke-opacity:1;fill:#000000;fill-opacity:1"
         transform="scale(0.8)" />
    </marker>
    <marker
       inkscape:stockid="TriangleOutM"
       orient="auto"
       refY="0"
       refX="0"
       id="TriangleOutM"
       style="overflow:visible"
       inkscape:isstock="true">
      <path
         id="path1232"
         d="M 5.77,0 -2.88,5 V -5 Z"
         style="fill:#666666;fill-opacity:1;fill-rule:evenodd;stroke:#666666;stroke-width:1.00000003pt;stroke-opacity:1"
         transform="scale(0.4)"
         inkscape:connector-curvature="0" />
    </marker>
    <marker
       inkscape:stockid="TriangleInM"
       orient="auto"
       refY="0"
       refX="0"
       id="TriangleInM"
       style="overflow:visible"
       inkscape:isstock="true">
      <path
         id="path1223"
         d="M 5.77,0 -2.88,5 V -5 Z"
         style="fill:#666666;fill-opacity:1;fill-rule:evenodd;stroke:#666666;stroke-width:1.00000003pt;stroke-opacity:1"
         transform="scale(-0.4)"
         inkscape:connector-curvature="0" />
    </marker>
    <marker
       inkscape:stockid="TriangleOutL"
       orient="auto"
       refY="0"
       refX="0"
       id="TriangleOutL"
       style="overflow:visible"
       inkscape:isstock="true">
      <path
         id="path1229"
         d="M 5.77,0 -2.88,5 V -5 Z"
         style="fill:#000000;fill-opacity:1;fill-rule:evenodd;stroke:#000000;stroke-width:1.00000003pt;stroke-opacity:1"
         transform="scale(0.8)"
         inkscape:connector-curvature="0" />
    </marker>
    <marker
       inkscape:stockid="TriangleInL"
       orient="auto"
       refY="0"
       refX="0"
       id="TriangleInL"
       style="overflow:visible"
       inkscape:isstock="true">
      <path
         id="path1220"
         d="M 5.77,0 -2.88,5 V -5 Z"
         style="fill:#000000;fill-opacity:1;fill-rule:evenodd;stroke:#000000;stroke-width:1.00000003pt;stroke-opacity:1"
         transform="scale(-0.8)"
         inkscape:connector-curvature="0" />
    </marker>
    <marker
       inkscape:stockid="Arrow1Mstart"
       orient="auto"
       refY="0"
       refX="0"
       id="Arrow1Mstart"
       style="overflow:visible"
       inkscape:isstock="true">
      <path
         id="path1093"
         d="M 0,0 5,-5 -12.5,0 5,5 Z"
         style="fill:#000000;fill-opacity:1;fill-rule:evenodd;stroke:#000000;stroke-width:1.00000003pt;stroke-opacity:1"
         transform="matrix(0.4,0,0,0.4,4,0)"
         inkscape:connector-curvature="0" />
    </marker>
    <marker
       inkscape:stockid="Arrow2Lstart"
       orient="auto"
       refY="0"
       refX="0"
       id="Arrow2Lstart"
       style="overflow:visible"
       inkscape:isstock="true">
      <path
         id="path1105"
         style="fill:#000000;fill-opacity:1;fill-rule:evenodd;stroke:#000000;stroke-width:0.625;stroke-linejoin:round;stroke-opacity:1"
         d="M 8.7185878,4.0337352 -2.2072895,0.01601326 8.7185884,-4.0017078 c -1.7454984,2.3720609 -1.7354408,5.6174519 -6e-7,8.035443 z"
         transform="matrix(1.1,0,0,1.1,1.1,0)"
         inkscape:connector-curvature="0" />
    </marker>
    <marker
       inkscape:isstock="true"
       style="overflow:visible"
       id="marker1795"
       refX="0"
       refY="0"
       orient="auto"
       inkscape:stockid="DotM"
       inkscape:collect="always">
      <path
         transform="matrix(0.4,0,0,0.4,2.96,0.4)"
         style="fill:#000000;fill-opacity:1;fill-rule:evenodd;stroke:#000000;stroke-width:1.00000003pt;stroke-opacity:1"
         d="m -2.5,-1 c 0,2.76 -2.24,5 -5,5 -2.76,0 -5,-2.24 -5,-5 0,-2.76 2.24,-5 5,-5 2.76,0 5,2.24 5,5 z"
         id="path1793"
         inkscape:connector-curvature="0" />
    </marker>
    <marker
       inkscape:isstock="true"
       style="overflow:visible"
       id="marker1641"
       refX="0"
       refY="0"
       orient="auto"
       inkscape:stockid="DotM">
      <path
         transform="matrix(0.4,0,0,0.4,2.96,0.4)"
         style="fill:#000000;fill-opacity:1;fill-rule:evenodd;stroke:#000000;stroke-width:1.00000003pt;stroke-opacity:1"
         d="m -2.5,-1 c 0,2.76 -2.24,5 -5,5 -2.76,0 -5,-2.24 -5,-5 0,-2.76 2.24,-5 5,-5 2.76,0 5,2.24 5,5 z"
         id="path1639"
         inkscape:connector-curvature="0" />
    </marker>
    <marker
       inkscape:stockid="DotM"
       orient="auto"
       refY="0"
       refX="0"
       id="DotM"
       style="overflow:visible"
       inkscape:isstock="true">
      <path
         id="path913"
         d="m -2.5,-1 c 0,2.76 -2.24,5 -5,5 -2.76,0 -5,-2.24 -5,-5 0,-2.76 2.24,-5 5,-5 2.76,0 5,2.24 5,5 z"
         style="fill:#000000;fill-opacity:1;fill-rule:evenodd;stroke:#000000;stroke-width:1.00000003pt;stroke-opacity:1"
         transform="matrix(0.4,0,0,0.4,2.96,0.4)"
         inkscape:connector-curvature="0" />
    </marker>
    <marker
       inkscape:stockid="DotM"
       orient="auto"
       refY="0"
       refX="0"
       id="DotM-2"
       style="overflow:visible"
       inkscape:isstock="true">
      <path
         inkscape:connector-curvature="0"
         id="path913-1"
         d="m -2.5,-1 c 0,2.76 -2.24,5 -5,5 -2.76,0 -5,-2.24 -5,-5 0,-2.76 2.24,-5 5,-5 2.76,0 5,2.24 5,5 z"
         style="fill:#000000;fill-opacity:1;fill-rule:evenodd;stroke:#000000;stroke-width:1.00000003pt;stroke-opacity:1"
         transform="matrix(0.4,0,0,0.4,2.96,0.4)" />
    </marker>
    <marker
       inkscape:stockid="DotM"
       orient="auto"
       refY="0"
       refX="0"
       id="marker1473"
       style="overflow:visible"
       inkscape:isstock="true">
      <path
         inkscape:connector-curvature="0"
         id="path1471"
         d="m -2.5,-1 c 0,2.76 -2.24,5 -5,5 -2.76,0 -5,-2.24 -5,-5 0,-2.76 2.24,-5 5,-5 2.76,0 5,2.24 5,5 z"
         style="fill:#000000;fill-opacity:1;fill-rule:evenodd;stroke:#000000;stroke-width:1.00000003pt;stroke-opacity:1"
         transform="matrix(0.4,0,0,0.4,2.96,0.4)" />
    </marker>
    <marker
       inkscape:stockid="DotM"
       orient="auto"
       refY="0"
       refX="0"
       id="DotM-1"
       style="overflow:visible"
       inkscape:isstock="true">
      <path
         inkscape:connector-curvature="0"
         id="path913-11"
         d="m -2.5,-1 c 0,2.76 -2.24,5 -5,5 -2.76,0 -5,-2.24 -5,-5 0,-2.76 2.24,-5 5,-5 2.76,0 5,2.24 5,5 z"
         style="fill:#000000;fill-opacity:1;fill-rule:evenodd;stroke:#000000;stroke-width:1.00000003pt;stroke-opacity:1"
         transform="matrix(0.4,0,0,0.4,2.96,0.4)" />
    </marker>
    <marker
       inkscape:stockid="DotM"
       orient="auto"
       refY="0"
       refX="0"
       id="marker1922"
       style="overflow:visible"
       inkscape:isstock="true">
      <path
         inkscape:connector-curvature="0"
         id="path1920"
         d="m -2.5,-1 c 0,2.76 -2.24,5 -5,5 -2.76,0 -5,-2.24 -5,-5 0,-2.76 2.24,-5 5,-5 2.76,0 5,2.24 5,5 z"
         style="fill:#000000;fill-opacity:1;fill-rule:evenodd;stroke:#000000;stroke-width:1.00000003pt;stroke-opacity:1"
         transform="matrix(0.4,0,0,0.4,2.96,0.4)" />
    </marker>
    <marker
       inkscape:stockid="DotM"
       orient="auto"
       refY="0"
       refX="0"
       id="DotM-1-4"
       style="overflow:visible"
       inkscape:isstock="true">
      <path
         inkscape:connector-curvature="0"
         id="path913-11-5"
         d="m -2.5,-1 c 0,2.76 -2.24,5 -5,5 -2.76,0 -5,-2.24 -5,-5 0,-2.76 2.24,-5 5,-5 2.76,0 5,2.24 5,5 z"
         style="fill:#000000;fill-opacity:1;fill-rule:evenodd;stroke:#000000;stroke-width:1.00000003pt;stroke-opacity:1"
         transform="matrix(0.4,0,0,0.4,2.96,0.4)" />
    </marker>
    <marker
       inkscape:stockid="DotM"
       orient="auto"
       refY="0"
       refX="0"
       id="marker2195"
       style="overflow:visible"
       inkscape:isstock="true">
      <path
         inkscape:connector-curvature="0"
         id="path2193"
         d="m -2.5,-1 c 0,2.76 -2.24,5 -5,5 -2.76,0 -5,-2.24 -5,-5 0,-2.76 2.24,-5 5,-5 2.76,0 5,2.24 5,5 z"
         style="fill:#000000;fill-opacity:1;fill-rule:evenodd;stroke:#000000;stroke-width:1.00000003pt;stroke-opacity:1"
         transform="matrix(0.4,0,0,0.4,2.96,0.4)" />
    </marker>
    <marker
       inkscape:stockid="DotM"
       orient="auto"
       refY="0"
       refX="0"
       id="DotM-1-4-1"
       style="overflow:visible"
       inkscape:isstock="true">
      <path
         inkscape:connector-curvature="0"
         id="path913-11-5-0"
         d="m -2.5,-1 c 0,2.76 -2.24,5 -5,5 -2.76,0 -5,-2.24 -5,-5 0,-2.76 2.24,-5 5,-5 2.76,0 5,2.24 5,5 z"
         style="fill:#000000;fill-opacity:1;fill-rule:evenodd;stroke:#000000;stroke-width:1.00000003pt;stroke-opacity:1"
         transform="matrix(0.4,0,0,0.4,2.96,0.4)" />
    </marker>
    <marker
       inkscape:stockid="DotM"
       orient="auto"
       refY="0"
       refX="0"
       id="marker2340"
       style="overflow:visible"
       inkscape:isstock="true">
      <path
         inkscape:connector-curvature="0"
         id="path2338"
         d="m -2.5,-1 c 0,2.76 -2.24,5 -5,5 -2.76,0 -5,-2.24 -5,-5 0,-2.76 2.24,-5 5,-5 2.76,0 5,2.24 5,5 z"
         style="fill:#000000;fill-opacity:1;fill-rule:evenodd;stroke:#000000;stroke-width:1.00000003pt;stroke-opacity:1"
         transform="matrix(0.4,0,0,0.4,2.96,0.4)" />
    </marker>
    <marker
       inkscape:stockid="DotM"
       orient="auto"
       refY="0"
       refX="0"
       id="marker2340-7"
       style="overflow:visible"
       inkscape:isstock="true">
      <path
         inkscape:connector-curvature="0"
         id="path2338-3"
         d="m -2.5,-1 c 0,2.76 -2.24,5 -5,5 -2.76,0 -5,-2.24 -5,-5 0,-2.76 2.24,-5 5,-5 2.76,0 5,2.24 5,5 z"
         style="fill:#000000;fill-opacity:1;fill-rule:evenodd;stroke:#000000;stroke-width:1.00000003pt;stroke-opacity:1"
         transform="matrix(0.4,0,0,0.4,2.96,0.4)" />
    </marker>
    <marker
       inkscape:stockid="TriangleInM"
       orient="auto"
       refY="0"
       refX="0"
       id="TriangleInM-7"
       style="overflow:visible"
       inkscape:isstock="true">
      <path
         inkscape:connector-curvature="0"
         id="path1223-2"
         d="M 5.77,0 -2.88,5 V -5 Z"
         style="fill:#666666;fill-opacity:1;fill-rule:evenodd;stroke:#666666;stroke-width:1.00000003pt;stroke-opacity:1"
         transform="scale(-0.4)" />
    </marker>
    <marker
       inkscape:stockid="TriangleOutM"
       orient="auto"
       refY="0"
       refX="0"
       id="TriangleOutM-4"
       style="overflow:visible"
       inkscape:isstock="true">
      <path
         inkscape:connector-curvature="0"
         id="path1232-1"
         d="M 5.77,0 -2.88,5 V -5 Z"
         style="fill:#666666;fill-opacity:1;fill-rule:evenodd;stroke:#666666;stroke-width:1.00000003pt;stroke-opacity:1"
         transform="scale(0.4)" />
    </marker>
  </defs>
  <sodipodi:namedview
     id="base"
     pagecolor="#ffffff"
     bordercolor="#666666"
     borderopacity="1.0"
     inkscape:pageopacity="0.0"
     inkscape:pageshadow="2"
     inkscape:zoom="0.5"
     inkscape:cx="666.04616"
     inkscape:cy="786.05014"
     inkscape:document-units="mm"
     inkscape:current-layer="layer1"
     showgrid="false"
     inkscape:window-width="1920"
     inkscape:window-height="1001"
     inkscape:window-x="-9"
     inkscape:window-y="-9"
     inkscape:window-maximized="1"
     fit-margin-top="0"
     fit-margin-left="0"
     fit-margin-right="0"
     fit-margin-bottom="0"
     inkscape:measure-start="1133.86,243.5"
     inkscape:measure-end="1130,758" />
  <metadata
     id="metadata5">
    <rdf:RDF>
      <cc:Work
         rdf:about="">
        <dc:format>image/svg+xml</dc:format>
        <dc:type
           rdf:resource="http://purl.org/dc/dcmitype/StillImage" />
        <dc:title />
      </cc:Work>
    </rdf:RDF>
  </metadata>
  <g
     inkscape:label="Layer 1"
     inkscape:groupmode="layer"
     id="layer1"
     transform="translate(-24.190474,119.9343)">
    <path
       style="fill:#999999;stroke:#666666;stroke-width:1.46068621;stroke-linecap:butt;stroke-linejoin:miter;stroke-miterlimit:4;stroke-dasharray:5.8427448, 1.4606862;stroke-dashoffset:0;stroke-opacity:1"
       d="M 24.190491,80.866612 H 424.19049"
       id="path7722"
       inkscape:connector-curvature="0" />
    <text
       xml:space="preserve"
       style="font-style:normal;font-weight:normal;font-size:10.58333302px;line-height:1.25;font-family:sans-serif;letter-spacing:0px;word-spacing:0px;fill:#000000;fill-opacity:1;stroke:none;stroke-width:0.26458332"
       x="326.26944"
       y="110.88451"
       id="text7726"><tspan
         sodipodi:role="line"
         id="tspan7724"
         x="326.26944"
         y="110.88451"
         style="font-size:12.69999981px;stroke-width:0.26458332">Figuration</tspan></text>
    <text
       xml:space="preserve"
       style="font-style:normal;font-weight:normal;font-size:10.58333302px;line-height:1.25;font-family:sans-serif;letter-spacing:0px;word-spacing:0px;fill:#000000;fill-opacity:1;stroke:none;stroke-width:0.26458332"
       x="300.32211"
       y="159.5775"
       id="text7726-3"><tspan
         sodipodi:role="line"
         id="tspan7724-0"
         x="300.32211"
         y="159.5775"
         style="font-size:12.69999981px;stroke-width:0.26458332">Decoration</tspan></text>
    <text
       xml:space="preserve"
       style="font-style:normal;font-weight:normal;font-size:10.58333302px;line-height:1.25;font-family:sans-serif;letter-spacing:0px;word-spacing:0px;fill:#000000;fill-opacity:1;stroke:none;stroke-width:0.26458332"
       x="249.45996"
       y="193.79399"
       id="text7726-3-3"><tspan
         sodipodi:role="line"
         id="tspan7724-0-5"
         x="249.45996"
         y="193.79399"
         style="font-size:12.69999981px;stroke-width:0.26458332">Lightness</tspan></text>
    <text
       xml:space="preserve"
       style="font-style:normal;font-weight:normal;font-size:10.58333302px;line-height:1.25;font-family:sans-serif;letter-spacing:0px;word-spacing:0px;fill:#000000;fill-opacity:1;stroke:none;stroke-width:0.26458332"
       x="90.407898"
       y="193.82809"
       id="text7726-3-1"><tspan
         sodipodi:role="line"
         id="tspan7724-0-8"
         x="90.407898"
         y="193.82809"
         style="font-size:12.69999981px;stroke-width:0.26458332">Unidimensionality</tspan></text>
    <text
       xml:space="preserve"
       style="font-style:normal;font-weight:normal;font-size:10.58333302px;line-height:1.25;font-family:sans-serif;letter-spacing:0px;word-spacing:0px;fill:#000000;fill-opacity:1;stroke:none;stroke-width:0.26458332"
       x="85.418655"
       y="158.57294"
       id="text7726-3-7"><tspan
         sodipodi:role="line"
         id="tspan7724-0-57"
         x="85.418655"
         y="158.57294"
         style="font-size:12.69999981px;stroke-width:0.26458332">Familiarity</tspan></text>
    <text
       xml:space="preserve"
       style="font-style:normal;font-weight:normal;font-size:10.58333302px;line-height:1.25;font-family:sans-serif;letter-spacing:0px;word-spacing:0px;fill:#000000;fill-opacity:1;stroke:none;stroke-width:0.26458332"
       x="46.109135"
       y="111.09538"
       id="text7726-3-9"><tspan
         sodipodi:role="line"
         id="tspan7724-0-1"
         x="46.109135"
         y="111.09538"
         style="font-size:12.69999981px;stroke-width:0.26458332">Redundancy</tspan></text>
    <text
       xml:space="preserve"
       style="font-style:normal;font-weight:normal;font-size:10.58333302px;line-height:1.25;font-family:sans-serif;letter-spacing:0px;word-spacing:0px;fill:#000000;fill-opacity:1;stroke:none;stroke-width:0.26458332"
       x="52.682381"
       y="58.280308"
       id="text7726-7"><tspan
         sodipodi:role="line"
         id="tspan7724-6"
         x="52.682381"
         y="58.280308"
         style="font-size:12.69999981px;stroke-width:0.26458332">Abstraction</tspan></text>
    <text
       xml:space="preserve"
       style="font-style:normal;font-weight:normal;font-size:10.58333302px;line-height:1.25;font-family:sans-serif;letter-spacing:0px;word-spacing:0px;fill:#000000;fill-opacity:1;stroke:none;stroke-width:0.26458332"
       x="70.262993"
       y="8.3874216"
       id="text7726-4"><tspan
         sodipodi:role="line"
         id="tspan7724-60"
         x="70.262993"
         y="8.3874216"
         style="font-size:12.69999981px;stroke-width:0.26458332">Functionality</tspan></text>
    <text
       xml:space="preserve"
       style="font-style:normal;font-weight:normal;font-size:10.58333302px;line-height:1.25;font-family:sans-serif;letter-spacing:0px;word-spacing:0px;fill:#000000;fill-opacity:1;stroke:none;stroke-width:0.26458332"
       x="155.59425"
       y="-23.438137"
       id="text7726-6"><tspan
         sodipodi:role="line"
         id="tspan7724-1"
         x="155.59425"
         y="-23.438137"
         style="font-size:12.69999981px;stroke-width:0.26458332">Density</tspan></text>
    <text
       xml:space="preserve"
       style="font-style:normal;font-weight:normal;font-size:10.58333302px;line-height:1.25;font-family:sans-serif;letter-spacing:0px;word-spacing:0px;fill:#000000;fill-opacity:1;stroke:none;stroke-width:0.26458332"
       x="249.45996"
       y="-23.261402"
       id="text7726-2"><tspan
         sodipodi:role="line"
         id="tspan7724-2"
         x="249.45996"
         y="-23.261402"
         style="font-size:12.69999981px;stroke-width:0.26458332">Multidimensionality</tspan></text>
    <text
       xml:space="preserve"
       style="font-style:normal;font-weight:normal;font-size:10.58333302px;line-height:1.25;font-family:sans-serif;letter-spacing:0px;word-spacing:0px;fill:#000000;fill-opacity:1;stroke:none;stroke-width:0.26458332"
       x="300.32211"
       y="8.3533144"
       id="text7726-42"><tspan
         sodipodi:role="line"
         id="tspan7724-9"
         x="300.32211"
         y="8.3533144"
         style="font-size:12.69999981px;stroke-width:0.26458332">Originality</tspan></text>
    <text
       xml:space="preserve"
       style="font-style:normal;font-weight:normal;font-size:10.58333302px;line-height:1.25;font-family:sans-serif;letter-spacing:0px;word-spacing:0px;fill:#000000;fill-opacity:1;stroke:none;stroke-width:0.26458332"
       x="326.26944"
       y="57.098984"
       id="text7726-77"><tspan
         sodipodi:role="line"
         id="tspan7724-00"
         x="326.26944"
         y="57.098984"
         style="font-size:12.69999981px;stroke-width:0.26458332">Novelty</tspan></text>
    <path
       style="opacity:1;fill:none;fill-opacity:0.99215686;stroke:#666666;stroke-width:1.46804976;stroke-linejoin:bevel;stroke-miterlimit:4;stroke-dasharray:none;stroke-dashoffset:0;stroke-opacity:1;marker-start:url(#TriangleInM);marker-end:url(#TriangleOutM)"
       id="path1085"
       sodipodi:type="arc"
       sodipodi:cx="224.19049"
       sodipodi:cy="85.111252"
       sodipodi:rx="196.38544"
       sodipodi:ry="195.09662"
       sodipodi:start="0"
       sodipodi:end="3.1415927"
       d="m 420.57593,85.111252 a 196.38544,195.09662 0 0 1 -98.19272,168.958628 196.38544,195.09662 0 0 1 -196.38544,0 A 196.38544,195.09662 0 0 1 27.805054,85.111243"
       sodipodi:open="true" />
    <path
       style="opacity:1;fill:none;fill-opacity:0.99215686;stroke:#666666;stroke-width:1.46804976;stroke-linejoin:bevel;stroke-miterlimit:4;stroke-dasharray:none;stroke-dashoffset:0;stroke-opacity:1;marker-start:url(#TriangleInM-7);marker-end:url(#TriangleOutM-4)"
       id="path1085-5"
       sodipodi:type="arc"
       sodipodi:cx="-224.19049"
       sodipodi:cy="-75.896118"
       sodipodi:rx="196.38545"
       sodipodi:ry="195.09662"
       sodipodi:start="0"
       sodipodi:end="3.1415927"
       d="m -27.805038,-75.896118 a 196.38545,195.09662 0 0 1 -98.192732,168.958629 196.38545,195.09662 0 0 1 -196.38545,-4e-6 196.38545,195.09662 0 0 1 -98.19272,-168.958634"
       sodipodi:open="true"
       transform="scale(-1)" />
    <g
       aria-label="More intelligible and shallower"
       style="font-style:normal;font-weight:normal;font-size:10.58333302px;line-height:1.25;font-family:sans-serif;letter-spacing:0px;word-spacing:0px;fill:#000000;fill-opacity:1;stroke:none;stroke-width:0.26458332"
       id="text6777">
      <path
         d="m 145.25071,252.2602 -1.10342,-0.53856 3.48976,-7.1499 -4.6817,3.73897 -0.65759,-0.32096 0.0841,-5.98297 -3.48976,7.1499 -1.03097,-0.5032 4.05008,-8.2979 1.50466,0.7344 -0.0425,5.69969 4.39484,-3.57537 1.53252,0.748 z"
         style="font-size:12.69999981px;fill:#666666;stroke-width:0.26458332"
         id="path6995" />
      <path
         d="m 154.23685,252.38374 q -0.66862,1.55529 -1.85317,2.11254 -1.18455,0.55725 -2.52335,-0.0183 -1.3502,-0.58045 -1.76081,-1.82346 -0.40492,-1.24057 0.2637,-2.79586 0.66862,-1.55528 1.84748,-2.11498 1.187,-0.56294 2.53719,0.0175 1.3388,0.57555 1.74697,1.82426 0.41062,1.24302 -0.25801,2.7983 z m -1.10522,-0.47513 q 0.53147,-1.23626 0.30439,-2.04263 -0.22464,-0.81206 -1.08489,-1.18188 -0.87165,-0.37473 -1.61551,0.021 -0.73571,0.39246 -1.26718,1.62871 -0.51432,1.19638 -0.29703,2.02553 0.21973,0.82346 1.08568,1.19573 0.85456,0.36738 1.60086,-0.034 0.75446,-0.40465 1.27368,-1.61242 z"
         style="font-size:12.69999981px;fill:#666666;stroke-width:0.26458332"
         id="path6997" />
      <path
         d="m 160.63733,252.5228 -0.0578,-0.0225 q -0.22017,-0.15233 -0.4423,-0.26548 -0.21409,-0.11669 -0.52611,-0.23825 -0.5027,-0.19585 -1.05852,-0.15284 -0.55357,0.0372 -1.12425,0.22086 l -1.78515,4.58207 -1.08629,-0.42322 2.51451,-6.45418 1.08629,0.42321 -0.37143,0.95339 q 0.84975,-0.2679 1.42419,-0.29035 0.58246,-0.026 1.09671,0.17438 0.28313,0.1103 0.4035,0.17716 0.12262,0.0611 0.3611,0.20058 z"
         style="font-size:12.69999981px;fill:#666666;stroke-width:0.26458332"
         id="path6999" />
      <path
         d="m 166.20378,256.9402 -4.81611,-1.68861 q -0.21134,0.60274 -0.18791,1.11694 0.0255,0.50835 0.24094,0.90589 0.20581,0.38759 0.57205,0.67371 0.3721,0.28817 0.87536,0.46462 0.66712,0.23391 1.43242,0.20652 0.7732,-0.0312 1.15022,-0.18813 l 0.0585,0.0205 -0.42061,1.19964 q -0.63801,0.0392 -1.27274,-0.006 -0.63474,-0.0451 -1.27259,-0.26877 -1.62683,-0.57039 -2.23196,-1.76826 -0.60308,-1.20371 -0.0347,-2.82469 0.56218,-1.60342 1.76445,-2.23986 1.20812,-0.63439 2.63599,-0.13376 1.32253,0.4637 1.76562,1.48647 0.44895,1.02482 -0.0496,2.44683 z m -0.77544,-1.21815 q 0.29781,-0.86814 0.031,-1.49397 -0.26099,-0.62379 -1.13878,-0.93155 -0.88364,-0.30982 -1.59291,0.0263 -0.70343,0.33821 -1.04449,1.08604 z"
         style="font-size:12.69999981px;fill:#666666;stroke-width:0.26458332"
         id="path7001" />
      <path
         d="m 174.52278,254.52535 -1.26188,-0.36873 0.33916,-1.16069 1.26188,0.36872 z m -2.33942,7.74088 -1.11902,-0.32698 1.94275,-6.64868 1.11902,0.32698 z"
         style="font-size:12.69999981px;fill:#666666;stroke-width:0.26458332"
         id="path7003" />
      <path
         d="m 180.01659,264.36995 -1.12852,-0.29255 0.98971,-3.81775 q 0.11982,-0.46221 0.17005,-0.8784 0.0518,-0.42219 -0.0331,-0.68765 -0.0847,-0.29101 -0.33571,-0.48421 -0.24945,-0.19919 -0.69966,-0.3159 -0.46221,-0.11983 -1.02557,-0.0224 -0.56337,0.0974 -1.11739,0.33173 l -1.29782,5.00629 -1.12852,-0.29255 1.73821,-6.70507 1.12851,0.29255 -0.19296,0.74434 q 0.64184,-0.30126 1.2699,-0.40109 0.62806,-0.0998 1.22234,0.0542 1.08649,0.28166 1.48713,1.08379 0.40065,0.80214 0.0816,2.0327 z"
         style="font-size:12.69999981px;fill:#666666;stroke-width:0.26458332"
         id="path7005" />
      <path
         d="m 185.72993,265.58994 q -0.33967,0.0134 -0.73314,-0.017 -0.38742,-0.029 -0.68402,-0.095 -1.03508,-0.23034 -1.44989,-0.90711 -0.4148,-0.67677 -0.14136,-1.90555 l 0.80011,-3.59555 -0.76874,-0.17106 0.21282,-0.9564 0.76875,0.17107 0.43238,-1.94305 1.13799,0.25324 -0.43239,1.94305 2.34861,0.52263 -0.21282,0.95639 -2.34861,-0.52263 -0.68562,3.08103 q -0.11854,0.53268 -0.16167,0.84072 -0.0418,0.30199 0.0456,0.5946 0.0793,0.27176 0.28372,0.43795 0.21182,0.16149 0.69002,0.26791 0.27844,0.062 0.59861,0.0506 0.32151,-0.0174 0.4668,-0.0422 l 0.0605,0.0135 z"
         style="font-size:12.69999981px;fill:#666666;stroke-width:0.26458332"
         id="path7007" />
      <path
         d="m 193.41565,263.72532 -5.01601,-0.94125 q -0.1178,0.62777 -0.0169,1.13252 0.10202,0.49866 0.3751,0.85906 0.26203,0.35202 0.66731,0.5795 0.41138,0.22862 0.93553,0.32698 0.69481,0.13038 1.44718,-0.0124 0.7596,-0.1477 1.10857,-0.35983 l 0.0609,0.0114 -0.23446,1.24943 q -0.62475,0.13514 -1.25901,0.18648 -0.63427,0.0513 -1.2986,-0.0733 -1.69435,-0.31794 -2.47359,-1.41058 -0.77809,-1.09873 -0.46129,-2.78698 0.31337,-1.66998 1.40563,-2.48083 1.09835,-0.80971 2.58548,-0.53065 1.37742,0.25847 1.97002,1.20251 0.59869,0.94519 0.32078,2.42623 z m -0.95065,-1.08694 q 0.16317,-0.90317 -0.19521,-1.48148 -0.35228,-0.57717 -1.2665,-0.74872 -0.92031,-0.1727 -1.57063,0.2668 -0.64423,0.44065 -0.86833,1.23144 z"
         style="font-size:12.69999981px;fill:#666666;stroke-width:0.26458332"
         id="path7009" />
      <path
         d="m 195.71129,267.45673 -1.15165,-0.18118 1.49956,-9.53178 1.15165,0.18118 z"
         style="font-size:12.69999981px;fill:#666666;stroke-width:0.26458332"
         id="path7011" />
      <path
         d="m 199.1727,267.95745 -1.15483,-0.15971 1.32184,-9.55805 1.15483,0.15971 z"
         style="font-size:12.69999981px;fill:#666666;stroke-width:0.26458332"
         id="path7013" />
      <path
         d="m 203.67518,260.37314 -1.30538,-0.15582 0.14332,-1.20071 1.30539,0.15583 z m -1.03236,8.0205 -1.1576,-0.13818 0.82102,-6.87788 1.1576,0.13819 z"
         style="font-size:12.69999981px;fill:#666666;stroke-width:0.26458332"
         id="path7015" />
      <path
         d="m 210.61217,268.37914 q -0.15558,1.75425 -1.02527,2.50511 -0.86968,0.75086 -2.5251,0.60404 -0.54974,-0.0488 -1.06766,-0.17563 -0.51229,-0.12014 -1.0062,-0.30713 l 0.10519,-1.18597 0.0618,0.005 q 0.27427,0.13638 0.87772,0.35177 0.6029,0.22156 1.2206,0.27634 0.59298,0.0526 0.99473,-0.055 0.40174,-0.10756 0.6404,-0.34164 0.23756,-0.22172 0.36034,-0.55324 0.12279,-0.33151 0.16004,-0.75154 l 0.0559,-0.63005 q -0.56229,0.37347 -1.06272,0.54075 -0.4937,0.16166 -1.23493,0.0959 -1.23539,-0.10957 -1.88538,-1.06369 -0.64326,-0.95975 -0.49918,-2.58429 0.0789,-0.88947 0.38294,-1.50996 0.31078,-0.62612 0.7848,-1.05721 0.4404,-0.40296 1.03621,-0.59291 0.59637,-0.19613 1.16465,-0.14572 0.59916,0.0531 0.9897,0.21228 0.39727,0.15352 0.82627,0.44059 l 0.10042,-0.28992 1.08714,0.0964 z m -1.06265,-1.21484 0.33364,-3.76175 q -0.44465,-0.2511 -0.83848,-0.37319 -0.3871,-0.12771 -0.78243,-0.16278 -0.95742,-0.0849 -1.56414,0.50873 -0.60672,0.59365 -0.71519,1.81668 -0.103,1.16126 0.25154,1.79658 0.35454,0.63532 1.29961,0.71914 0.5065,0.0449 1.02999,-0.10164 0.53022,-0.1522 0.98546,-0.44177 z"
         style="font-size:12.69999981px;fill:#666666;stroke-width:0.26458332"
         id="path7017" />
      <path
         d="m 214.55383,261.29835 -1.31243,-0.0764 0.0702,-1.20719 1.31243,0.0764 z m -0.54409,8.06835 -1.16385,-0.0677 0.40243,-6.91501 1.16385,0.0677 z"
         style="font-size:12.69999981px;fill:#666666;stroke-width:0.26458332"
         id="path7019" />
      <path
         d="m 222.51682,266.15507 q -0.0242,0.86783 -0.29144,1.55519 -0.26108,0.68753 -0.68952,1.14708 -0.45374,0.47745 -0.98754,0.71073 -0.53363,0.22708 -1.1659,0.20948 -0.58889,-0.0164 -1.02503,-0.17122 -0.43632,-0.14863 -0.85747,-0.39609 l -0.0834,0.32026 -1.09099,-0.0304 0.26854,-9.64529 1.16537,0.0324 -0.0959,3.44651 q 0.50092,-0.38928 1.05968,-0.62807 0.55894,-0.24499 1.24701,-0.22583 1.22735,0.0342 1.90778,0.99605 0.68662,0.96206 0.63882,2.67912 z m -1.20342,-0.002 q 0.0345,-1.23976 -0.35683,-1.88962 -0.39117,-0.65606 -1.30239,-0.68143 -0.5083,-0.0142 -1.03521,0.1945 -0.52674,0.20246 -0.98271,0.53717 l -0.11045,3.96721 q 0.48968,0.23696 0.8406,0.33358 0.35711,0.0968 0.80962,0.1094 0.96701,0.0269 1.5301,-0.59017 0.56947,-0.62311 0.60727,-1.98064 z"
         style="font-size:12.69999981px;fill:#666666;stroke-width:0.26458332"
         id="path7021" />
      <path
         d="m 225.41473,269.64931 -1.16582,0.003 -0.0235,-9.649 1.16582,-0.003 z"
         style="font-size:12.69999981px;fill:#666666;stroke-width:0.26458332"
         id="path7023" />
      <path
         d="m 233.42342,266.11508 -5.101,0.16196 q 0.0203,0.6384 0.22757,1.10955 0.20709,0.46495 0.55143,0.75803 0.33174,0.28727 0.77653,0.42205 0.45098,0.13458 0.98401,0.11766 0.70658,-0.0224 1.4105,-0.32398 0.70992,-0.30794 1.00497,-0.5903 l 0.062,-0.002 0.0403,1.2706 q -0.58094,0.26661 -1.18923,0.45344 -0.6083,0.18683 -1.28388,0.20829 -1.72306,0.0547 -2.71948,-0.8443 -0.99661,-0.90521 -1.05112,-2.62206 -0.0539,-1.69827 0.8379,-2.72548 0.89802,-1.0274 2.41034,-1.07542 1.40076,-0.0445 2.1829,0.74965 0.78834,0.79394 0.83616,2.30006 z m -1.16259,-0.85651 q -0.0353,-0.91711 -0.50992,-1.40459 -0.4684,-0.48768 -1.3981,-0.45816 -0.93591,0.0297 -1.47622,0.59906 -0.53411,0.56914 -0.58251,1.38964 z"
         style="font-size:12.69999981px;fill:#666666;stroke-width:0.26458332"
         id="path7025" />
      <path
         d="m 245.10702,268.52992 -1.15433,0.11066 -0.0704,-0.73458 q -0.14426,0.11974 -0.39135,0.33654 -0.24151,0.21004 -0.47777,0.34482 -0.27652,0.16979 -0.64419,0.29848 -0.36707,0.13486 -0.87325,0.18338 -0.9321,0.0894 -1.63943,-0.46581 -0.70732,-0.55515 -0.79904,-1.51195 -0.0752,-0.78395 0.21203,-1.29739 0.29276,-0.5202 0.88959,-0.85775 0.60301,-0.33813 1.47626,-0.52152 0.87325,-0.18338 1.88087,-0.32981 l -0.0172,-0.17901 q -0.0379,-0.39506 -0.2047,-0.64071 -0.16065,-0.24625 -0.43412,-0.36954 -0.26052,-0.11831 -0.61094,-0.13456 -0.35041,-0.0162 -0.72696,0.0199 -0.45679,0.0438 -1.00669,0.2211 -0.55049,0.17113 -1.12736,0.45692 l -0.0617,0.006 -0.11302,-1.17902 q 0.33063,-0.12514 0.96196,-0.29779 0.63133,-0.17265 1.25479,-0.23242 0.7284,-0.0698 1.27727,0.002 0.55446,0.0652 0.97733,0.31746 0.41611,0.24668 0.66302,0.67777 0.2469,0.43109 0.3108,1.09776 z m -1.31706,-1.58689 -0.18403,-1.91976 q -0.5279,0.0817 -1.24421,0.21272 -0.71014,0.13037 -1.11865,0.28789 -0.4864,0.1899 -0.76604,0.52196 -0.28024,0.32589 -0.22995,0.85058 0.0568,0.5926 0.44383,0.86075 0.38643,0.26197 1.121,0.19156 0.61112,-0.0586 1.09481,-0.34167 0.4831,-0.28927 0.88324,-0.66403 z"
         style="font-size:12.69999981px;fill:#666666;stroke-width:0.26458332"
         id="path7027" />
      <path
         d="m 253.08769,267.48058 -1.1549,0.15915 -0.53842,-3.90702 q -0.0652,-0.47302 -0.1772,-0.87699 -0.11285,-0.41011 -0.29245,-0.62323 -0.18914,-0.23685 -0.4948,-0.31992 -0.3065,-0.0892 -0.76723,-0.0257 -0.47302,0.0652 -0.95688,0.36974 -0.48385,0.30455 -0.90692,0.73218 l 0.70604,5.12336 -1.15491,0.15915 -0.94561,-6.86186 1.1549,-0.15915 0.10498,0.76174 q 0.47879,-0.52294 1.02153,-0.85439 0.54275,-0.33144 1.15092,-0.41525 1.1119,-0.15323 1.78777,0.43594 0.67587,0.58918 0.84942,1.84852 z"
         style="font-size:12.69999981px;fill:#666666;stroke-width:0.26458332"
         id="path7029" />
      <path
         d="m 260.83338,266.12471 -1.1472,0.20755 -0.12917,-0.71394 q -0.41699,0.51657 -0.91092,0.85171 -0.49393,0.33513 -1.12244,0.44885 -1.22042,0.2208 -2.11049,-0.58865 -0.88397,-0.81055 -1.18536,-2.47643 -0.15677,-0.8665 -0.0352,-1.58799 0.12764,-0.7226 0.46258,-1.27474 0.33103,-0.53883 0.83606,-0.88228 0.51113,-0.34455 1.10304,-0.45164 0.53698,-0.0971 0.9729,-0.0563 0.43482,0.0348 0.93553,0.18995 l -0.53434,-2.95342 1.14719,-0.20755 z m -1.45081,-1.47052 -0.70767,-3.91145 q -0.5013,-0.12357 -0.88178,-0.13665 -0.38047,-0.0131 -0.81372,0.0653 -0.96414,0.17444 -1.37968,0.94282 -0.41554,0.76839 -0.19253,2.00101 0.2197,1.21432 0.74946,1.77387 0.52866,0.55344 1.44397,0.38784 0.48817,-0.0883 0.9499,-0.39243 0.46063,-0.3102 0.83205,-0.7303 z"
         style="font-size:12.69999981px;fill:#666666;stroke-width:0.26458332"
         id="path7031" />
      <path
         d="m 271.77032,261.57765 q 0.22624,0.92142 -0.39368,1.69939 -0.6139,0.7765 -1.93278,1.10033 -0.74677,0.18335 -1.41597,0.16249 -0.66466,-0.0284 -1.13797,-0.13564 l -0.312,-1.2707 0.0602,-0.0148 q 0.63506,0.27189 1.35064,0.35161 0.71409,0.0737 1.31632,-0.0742 0.74677,-0.18335 1.10918,-0.52775 0.36242,-0.3444 0.23525,-0.86232 -0.0976,-0.39747 -0.37671,-0.54604 -0.27913,-0.14856 -0.96502,-0.1334 -0.2542,0.005 -0.66339,0.0288 -0.40318,0.0224 -0.74306,0.0164 -0.94294,-0.0175 -1.42723,-0.3775 -0.47974,-0.36749 -0.64239,-1.02994 -0.10203,-0.41554 -0.0236,-0.82431 0.0844,-0.41024 0.36276,-0.78507 0.26775,-0.36585 0.74575,-0.65562 0.48253,-0.29727 1.12692,-0.45549 0.60223,-0.14787 1.25347,-0.14813 0.65578,-0.008 1.11705,0.10246 l 0.29722,1.21048 -0.0602,0.0148 q -0.51197,-0.21272 -1.1855,-0.27722 -0.67501,-0.0705 -1.27121,0.0759 -0.6203,0.1523 -0.98874,0.49818 -0.36991,0.33985 -0.25458,0.80959 0.10203,0.41554 0.41274,0.56274 0.30469,0.14868 0.90332,0.14217 0.3309,-0.005 0.73408,-0.027 0.40919,-0.0239 0.68293,-0.0272 0.83329,-0.013 1.36881,0.32161 0.53701,0.34066 0.7174,1.07538 z"
         style="font-size:12.69999981px;fill:#666666;stroke-width:0.26458332"
         id="path7033" />
      <path
         d="m 279.43289,261.49081 -1.12063,0.32144 -1.08744,-3.79107 q -0.13166,-0.45898 -0.29986,-0.84296 -0.16992,-0.38995 -0.37795,-0.57542 -0.22083,-0.20761 -0.53518,-0.24647 -0.31607,-0.0448 -0.76313,0.0834 -0.45898,0.13166 -0.89471,0.50179 -0.43574,0.37014 -0.79384,0.85348 l 1.42598,4.9713 -1.12063,0.32145 -2.66046,-9.275 1.12063,-0.32144 0.96262,3.35592 q 0.39974,-0.5856 0.88995,-0.99071 0.49021,-0.40512 1.08033,-0.57439 1.0789,-0.30947 1.83155,0.17782 0.75264,0.4873 1.10315,1.70926 z"
         style="font-size:12.69999981px;fill:#666666;stroke-width:0.26458332"
         id="path7035" />
      <path
         d="m 286.68493,259.12621 -1.10054,0.36542 -0.23254,-0.70034 q -0.11391,0.14891 -0.3064,0.41538 -0.18855,0.25863 -0.38878,0.44273 -0.23166,0.2272 -0.56135,0.43468 -0.32773,0.21337 -0.81032,0.37361 -0.88867,0.29508 -1.70203,-0.0883 -0.81337,-0.38333 -1.11626,-1.29554 -0.24818,-0.74743 -0.0828,-1.312 0.16931,-0.57241 0.67578,-1.03461 0.51236,-0.46416 1.32268,-0.83777 0.81032,-0.37361 1.75986,-0.74117 l -0.0567,-0.17067 q -0.12507,-0.37665 -0.3425,-0.57889 -0.21155,-0.20419 -0.50563,-0.26336 -0.28035,-0.0572 -0.62556,0.005 -0.3452,0.0624 -0.7042,0.18155 -0.43551,0.14461 -0.93198,0.44014 -0.49843,0.28965 -0.99699,0.69696 l -0.0589,0.0195 -0.37325,-1.12408 q 0.29438,-0.19576 0.87127,-0.50492 0.57689,-0.30917 1.17129,-0.50654 0.69446,-0.23059 1.24556,-0.28289 0.55502,-0.0601 1.02352,0.0914 0.46066,0.14761 0.79753,0.51274 0.33686,0.36514 0.54791,1.00074 z m -1.63793,-1.25301 -0.60774,-1.83031 q -0.49636,0.19749 -1.16539,0.48498 -0.66314,0.28553 -1.02621,0.53023 -0.43175,0.29365 -0.63026,0.67973 -0.20046,0.3802 -0.0344,0.88044 0.1876,0.56498 0.62469,0.74002 0.43515,0.16915 1.13549,-0.0634 0.58263,-0.19346 0.99096,-0.57734 0.40638,-0.38976 0.71282,-0.84435 z"
         style="font-size:12.69999981px;fill:#666666;stroke-width:0.26458332"
         id="path7037" />
      <path
         d="m 289.91332,257.95045 -1.09518,0.39965 -3.30773,-9.06436 1.09518,-0.39965 z"
         style="font-size:12.69999981px;fill:#666666;stroke-width:0.26458332"
         id="path7039" />
      <path
         d="m 293.18392,256.71138 -1.08764,0.41975 -3.47409,-9.00191 1.08764,-0.41975 z"
         style="font-size:12.69999981px;fill:#666666;stroke-width:0.26458332"
         id="path7041" />
      <path
         d="m 299.44874,250.39643 q 0.6559,1.56069 0.23515,2.80031 -0.42075,1.23962 -1.7642,1.80423 -1.35489,0.56941 -2.53486,0.003 -1.17424,-0.5693 -1.83015,-2.13 -0.6559,-1.56069 -0.24087,-2.79791 0.41835,-1.24534 1.77324,-1.81475 1.34346,-0.5646 2.52582,0.008 1.17996,0.5669 1.83587,2.1276 z m -1.10907,0.4661 q -0.52136,-1.24056 -1.25956,-1.63661 -0.7406,-0.40176 -1.60384,-0.039 -0.87468,0.36759 -1.10594,1.1778 -0.22794,0.80208 0.29342,2.04263 0.50454,1.20054 1.25235,1.61945 0.74541,0.4132 1.61437,0.048 0.85752,-0.36039 1.08638,-1.17631 0.23217,-0.82404 -0.27718,-2.036 z"
         style="font-size:12.69999981px;fill:#666666;stroke-width:0.26458332"
         id="path7043" />
      <path
         d="m 307.32742,242.85793 1.3571,7.02808 -0.97364,0.46505 -3.90716,-4.05076 0.70646,5.57956 -0.96804,0.46238 -4.63055,-5.46453 1.09674,-0.52386 3.45902,4.29231 -0.75073,-5.58591 0.86732,-0.41427 3.91226,4.07582 -1.22636,-5.35873 z"
         style="font-size:12.69999981px;fill:#666666;stroke-width:0.26458332"
         id="path7045" />
      <path
         d="m 315.31656,242.61621 -4.49571,2.41556 q 0.30231,0.56265 0.69765,0.89228 0.3924,0.32417 0.8312,0.43335 0.42494,0.10958 0.88323,0.0323 0.46374,-0.0802 0.93353,-0.33264 0.62273,-0.3346 1.11885,-0.91794 0.49865,-0.59175 0.63718,-0.97592 l 0.0546,-0.0293 0.60169,1.11983 q -0.40154,0.49733 -0.86309,0.93539 -0.46155,0.43807 -1.05698,0.75799 -1.5186,0.81594 -2.81102,0.45443 -1.29536,-0.36699 -2.10837,-1.88012 -0.80421,-1.49676 -0.46283,-2.81356 0.34684,-1.31973 1.67972,-2.03589 1.23454,-0.66332 2.28841,-0.30034 1.05933,0.36005 1.77255,1.68746 z m -1.4223,-0.24949 q -0.43985,-0.80553 -1.08183,-1.03081 -0.63651,-0.22821 -1.45589,0.21205 -0.82486,0.4432 -1.05527,1.19352 -0.22495,0.7474 0.0969,1.50368 z"
         style="font-size:12.69999981px;fill:#666666;stroke-width:0.26458332"
         id="path7047" />
      <path
         d="m 319.31607,237.611 -0.0536,0.0312 q -0.25626,0.0775 -0.48308,0.18092 -0.22459,0.0949 -0.51394,0.26347 -0.46619,0.27155 -0.7785,0.73334 -0.31542,0.45643 -0.52692,1.01739 l 2.47509,4.24924 -1.00739,0.58678 -3.48634,-5.98538 1.00739,-0.58678 0.51499,0.88415 q 0.31924,-0.83183 0.65922,-1.2954 0.34222,-0.47204 0.81912,-0.74982 0.26257,-0.15294 0.38982,-0.20553 0.12412,-0.058 0.38174,-0.15777 z"
         style="font-size:12.69999981px;fill:#666666;stroke-width:0.26458332"
         id="path7049" />
    </g>
    <g
       aria-label="More complex and deeper"
       style="font-style:normal;font-weight:normal;font-size:10.58333302px;line-height:1.25;font-family:sans-serif;letter-spacing:0px;word-spacing:0px;fill:#000000;fill-opacity:1;stroke:none;stroke-width:0.26458332"
       id="text7054">
      <path
         d="m 162.03091,-88.429806 -1.13395,0.470865 -3.05111,-7.347811 -0.29492,5.984253 -0.67579,0.280617 -4.4299,-4.022318 3.0511,7.347811 -1.0595,0.439949 -3.541,-8.527584 1.54631,-0.642088 4.24509,3.803621 0.22774,-5.66092 1.57494,-0.653979 z"
         style="font-size:12.69999981px;fill:#666666;stroke-width:0.26458332"
         id="path7083" />
      <path
         d="m 168.67618,-94.509227 q 0.57019,1.594005 0.0828,2.808952 -0.48743,1.214947 -1.85956,1.705776 -1.38381,0.495006 -2.53125,-0.135123 -1.14161,-0.632218 -1.7118,-2.226223 -0.5702,-1.594006 -0.0886,-2.806864 0.48535,-1.220785 1.86916,-1.715791 1.37213,-0.490829 2.52166,0.145139 1.14744,0.630129 1.71764,2.224134 z m -1.13274,0.405195 q -0.45323,-1.26703 -1.16884,-1.702575 -0.7177,-0.441384 -1.59936,-0.126 -0.89335,0.319561 -1.16825,1.116013 -0.27116,0.788524 0.18207,2.055554 0.43862,1.226158 1.16258,1.685058 0.72187,0.453062 1.60938,0.135589 0.87582,-0.313295 1.14864,-1.115585 0.27657,-0.810218 -0.16622,-2.048054 z"
         style="font-size:12.69999981px;fill:#666666;stroke-width:0.26458332"
         id="path7085" />
      <path
         d="m 173.97434,-98.501423 -0.0591,0.01877 q -0.267,0.01974 -0.51092,0.07119 -0.23989,0.04366 -0.55904,0.145034 -0.51418,0.163321 -0.9197,0.545877 -0.40739,0.376645 -0.73614,0.877962 l 1.48867,4.686786 -1.11112,0.352925 -2.0969,-6.601691 1.11112,-0.352924 0.30975,0.975182 q 0.49299,-0.74217 0.92589,-1.120415 0.43695,-0.386031 0.96295,-0.553107 0.2896,-0.09199 0.42526,-0.115555 0.13378,-0.02948 0.40697,-0.07071 z"
         style="font-size:12.69999981px;fill:#666666;stroke-width:0.26458332"
         id="path7087" />
      <path
         d="m 181.43917,-98.202873 -4.91623,1.370053 q 0.17146,0.615275 0.48483,1.023633 0.31169,0.402383 0.71584,0.605193 0.39053,0.200166 0.8546,0.225337 0.47005,0.02351 0.98378,-0.119658 0.68098,-0.189777 1.29303,-0.650027 0.61635,-0.46789 0.83581,-0.812296 l 0.0597,-0.01665 0.34127,1.224577 q -0.5009,0.397089 -1.04733,0.723181 -0.54644,0.326091 -1.19756,0.507544 -1.66064,0.462788 -2.84222,-0.17355 -1.18325,-0.642312 -1.64437,-2.296985 -0.45613,-1.636752 0.16591,-2.846535 0.62802,-1.211447 2.08556,-1.617637 1.35003,-0.37622 2.29854,0.20919 0.95449,0.58375 1.35901,2.035325 z m -1.33288,-0.55555 q -0.25235,-0.88242 -0.82923,-1.243087 -0.57091,-0.36234 -1.46694,-0.11263 -0.90201,0.25137 -1.29147,0.932839 -0.38349,0.679805 -0.23543,1.48829 z"
         style="font-size:12.69999981px;fill:#666666;stroke-width:0.26458332"
         id="path7089" />
      <path
         d="m 193.32093,-97.914504 q -0.51279,0.393316 -0.99656,0.653763 -0.47771,0.259167 -1.05414,0.380714 -0.7342,0.154813 -1.39182,0.07167 -0.65891,-0.08921 -1.1879,-0.433973 -0.53507,-0.343478 -0.91852,-0.959753 -0.38345,-0.616274 -0.57153,-1.508233 -0.35056,-1.66256 0.36,-2.80105 0.71664,-1.13976 2.21537,-1.45579 0.58251,-0.12282 1.17529,-0.0767 0.59884,0.0448 1.11596,0.18296 l 0.2674,1.26816 -0.0607,0.0128 q -0.60755,-0.29651 -1.21184,-0.39724 -0.59822,-0.10201 -1.12612,0.009 -0.97084,0.20471 -1.39696,0.97902 -0.42133,0.76696 -0.15521,2.029048 0.25845,1.225685 0.94401,1.771919 0.69034,0.538888 1.68545,0.329059 0.34587,-0.07293 0.68467,-0.239432 0.33881,-0.166504 0.59328,-0.372263 0.22191,-0.17988 0.41093,-0.365499 0.18773,-0.191685 0.2934,-0.321706 l 0.0607,-0.01279 z"
         style="font-size:12.69999981px;fill:#666666;stroke-width:0.26458332"
         id="path7091" />
      <path
         d="m 200.12817,-102.16392 q 0.28302,1.66909 -0.40913,2.78023 -0.69215,1.111134 -2.12891,1.35476 -1.449,0.245699 -2.46874,-0.575159 -1.01363,-0.821894 -1.29666,-2.490991 -0.28302,-1.66909 0.40302,-2.77919 0.69111,-1.11725 2.1401,-1.36295 1.43677,-0.24362 2.45755,0.58335 1.01975,0.82086 1.30277,2.48995 z m -1.1861,0.20112 q -0.22497,-1.32672 -0.8535,-1.88056 -0.62957,-0.55995 -1.55277,-0.40341 -0.93543,0.15862 -1.34522,0.89481 -0.40471,0.72904 -0.17975,2.05576 0.21771,1.28392 0.85039,1.862216 0.63165,0.572181 1.56096,0.414602 0.91709,-0.155506 1.32584,-0.897813 0.41383,-0.749455 0.19405,-2.045605 z"
         style="font-size:12.69999981px;fill:#666666;stroke-width:0.26458332"
         id="path7093" />
      <path
         d="m 212.53896,-100.18643 -1.15851,0.13034 -0.44095,-3.91921 q -0.0499,-0.44369 -0.13951,-0.85171 -0.0834,-0.40871 -0.24056,-0.64065 -0.17155,-0.24903 -0.45178,-0.35479 -0.28023,-0.10575 -0.77938,-0.0496 -0.48682,0.0548 -0.94591,0.35603 -0.45978,0.2951 -0.90431,0.72577 0.0344,0.13966 0.0683,0.3293 0.0331,0.18348 0.0539,0.36835 l 0.49572,4.406041 -1.15851,0.130343 -0.44095,-3.919214 q -0.0513,-0.45601 -0.1402,-0.85787 -0.0834,-0.40872 -0.24057,-0.64065 -0.17154,-0.24903 -0.45108,-0.34863 -0.28023,-0.10575 -0.77938,-0.0496 -0.47449,0.0534 -0.92881,0.34163 -0.44815,0.28755 -0.88174,0.70451 l 0.57823,5.139351 -1.15852,0.130343 -0.77443,-6.883284 1.15851,-0.13034 0.086,0.76412 q 0.49167,-0.51085 0.99937,-0.82383 0.51385,-0.31366 1.12392,-0.3823 0.7025,-0.079 1.2226,0.16198 0.52626,0.24032 0.82552,0.73708 0.63595,-0.67062 1.18608,-0.99461 0.54945,-0.33015 1.20881,-0.40433 1.13386,-0.12757 1.74763,0.50229 0.61924,0.623 0.75791,1.85546 z"
         style="font-size:12.69999981px;fill:#666666;stroke-width:0.26458332"
         id="path7095" />
      <path
         d="m 220.67293,-104.18991 q 0.0467,0.84206 -0.1559,1.55512 -0.20299,0.70687 -0.61579,1.21421 -0.38322,0.48087 -0.92637,0.76565 -0.53731,0.27825 -1.15648,0.31262 -0.53867,0.0299 -0.98481,-0.0633 -0.43994,-0.0936 -0.90568,-0.31617 l 0.16083,2.89769 -1.16403,0.06461 -0.52545,-9.467018 1.16403,-0.0646 0.0402,0.72442 q 0.44272,-0.41585 1.00411,-0.70786 0.56724,-0.29854 1.22355,-0.33497 1.25072,-0.0694 1.99676,0.83942 0.75189,0.90229 0.84502,2.58023 z m -1.19946,0.0976 q -0.0694,-1.25072 -0.53101,-1.84617 -0.46159,-0.59545 -1.34699,-0.54631 -0.50152,0.0278 -0.99721,0.27273 -0.49569,0.24488 -0.94047,0.62358 l 0.21753,3.91931 q 0.50771,0.19541 0.8651,0.25631 0.36358,0.0606 0.81557,0.0355 0.97209,-0.054 1.48052,-0.74051 0.50844,-0.68655 0.43696,-1.97441 z"
         style="font-size:12.69999981px;fill:#666666;stroke-width:0.26458332"
         id="path7097" />
      <path
         d="m 223.86485,-100.70502 -1.1655,0.0275 -0.22721,-9.64634 1.1655,-0.0275 z"
         style="font-size:12.69999981px;fill:#666666;stroke-width:0.26458332"
         id="path7099" />
      <path
         d="m 232.00656,-104.05509 -5.10343,-0.0377 q -0.005,0.63871 0.18398,1.1176 0.18875,0.4727 0.52136,0.77903 0.32025,0.30003 0.75942,0.45211 0.44537,0.15212 0.97866,0.15606 0.70691,0.005 1.42209,-0.26854 0.72143,-0.27993 1.02729,-0.55053 l 0.062,4.6e-4 -0.009,1.2712 q -0.59093,0.24369 -1.20607,0.40658 -0.61514,0.16289 -1.29105,0.15789 -1.72387,-0.0127 -2.68436,-0.95005 -0.96043,-0.9435 -0.94773,-2.66118 0.0126,-1.69907 0.94389,-2.6906 0.93753,-0.99149 2.45057,-0.9803 1.40143,0.0104 2.1519,0.83448 0.75667,0.82417 0.74553,2.33102 z m -1.12818,-0.90133 q 5.8e-4,-0.9178 -0.45458,-1.42347 -0.44896,-0.50563 -1.37911,-0.51251 -0.93635,-0.007 -1.49852,0.54085 -0.55597,0.54781 -0.63644,1.36579 z"
         style="font-size:12.69999981px;fill:#666666;stroke-width:0.26458332"
         id="path7101" />
      <path
         d="m 239.73803,-100.35354 -1.46787,-0.0728 -1.8315,-2.75447 -2.1076,2.55898 -1.35639,-0.0673 2.87159,-3.3158 -2.50348,-3.60117 1.46787,0.0729 1.82126,2.7105 2.08687,-2.51655 1.36258,0.0676 -2.88802,3.27151 z"
         style="font-size:12.69999981px;fill:#666666;stroke-width:0.26458332"
         id="path7103" />
      <path
         d="m 251.04636,-99.203348 -1.15169,-0.135366 0.0861,-0.732896 q -0.16627,0.0866 -0.45354,0.2464 -0.28038,0.15436 -0.53976,0.236263 -0.30612,0.10763 -0.69266,0.155855 -0.38727,0.05438 -0.89229,-0.005 -0.92997,-0.109306 -1.50426,-0.801194 -0.57428,-0.69188 -0.46208,-1.64649 0.0919,-0.78217 0.48097,-1.22346 0.39592,-0.44673 1.05053,-0.65077 0.66077,-0.2033 1.55306,-0.19833 0.89228,0.005 1.90811,0.0744 l 0.021,-0.17861 q 0.0463,-0.39416 -0.0649,-0.66947 -0.10509,-0.2746 -0.34639,-0.45281 -0.2297,-0.17061 -0.5688,-0.26042 -0.3391,-0.0898 -0.71479,-0.13396 -0.45575,-0.0536 -1.03067,0.004 -0.57421,0.0511 -1.19839,0.2088 l -0.0616,-0.007 0.13826,-1.17633 q 0.34959,-0.0526 1.00314,-0.0881 0.65354,-0.0356 1.27557,0.0375 0.72674,0.0854 1.24808,0.27157 0.52822,0.18071 0.88835,0.51651 0.35471,0.3289 0.50511,0.80238 0.15039,0.47348 0.0722,1.13863 z m -0.95262,-1.829032 0.22513,-1.91538 q -0.53328,-0.0315 -1.26109,-0.0546 -0.72166,-0.0224 -1.15421,0.0454 -0.51551,0.083 -0.85892,0.3486 -0.34269,0.25943 -0.40422,0.78293 -0.0695,0.59124 0.25225,0.935 0.32246,0.33761 1.05536,0.42375 0.60972,0.0717 1.14224,-0.10301 0.53326,-0.18083 1.00346,-0.46274 z"
         style="font-size:12.69999981px;fill:#666666;stroke-width:0.26458332"
         id="path7105" />
      <path
         d="m 259.00018,-97.966256 -1.15076,-0.186768 0.63183,-3.893006 q 0.0765,-0.47132 0.088,-0.89038 0.0125,-0.42517 -0.0967,-0.68161 -0.1113,-0.28193 -0.37912,-0.45104 -0.26683,-0.17523 -0.72591,-0.24974 -0.47133,-0.0765 -1.02325,0.0726 -0.55192,0.14915 -1.08185,0.4338 l -0.82854,5.10498 -1.15076,-0.186768 1.10968,-6.837242 1.15076,0.18677 -0.12319,0.75901 q 0.61118,-0.35941 1.22729,-0.51699 0.61612,-0.15758 1.2221,-0.0592 1.10792,0.17981 1.58113,0.94139 0.47322,0.76157 0.26956,2.01639 z"
         style="font-size:12.69999981px;fill:#666666;stroke-width:0.26458332"
         id="path7107" />
      <path
         d="m 266.70766,-96.407743 -1.14127,-0.237991 0.14812,-0.710258 q -0.58034,0.322402 -1.16392,0.447755 -0.58358,0.125353 -1.20885,-0.005 -1.21412,-0.253181 -1.7355,-1.337429 -0.5153,-1.082981 -0.16971,-2.740248 0.17976,-0.86203 0.5631,-1.48522 0.38941,-0.62194 0.90702,-1.0081 0.50901,-0.37528 1.106,-0.50417 0.60306,-0.12763 1.1919,-0.005 0.53421,0.1114 0.92296,0.31282 0.39001,0.19535 0.79594,0.52705 l 0.6127,-2.93816 1.14127,0.23799 z m -0.79314,-1.907402 0.81145,-3.891245 q -0.41833,-0.30261 -0.76611,-0.45748 -0.34777,-0.15487 -0.77879,-0.24475 -0.95915,-0.20002 -1.63261,0.35635 -0.67346,0.55636 -0.92917,1.78262 -0.25192,1.208048 0.0292,1.92547 0.28241,0.711352 1.19299,0.901239 0.48565,0.101272 1.02775,-0.0074 0.54336,-0.114736 1.04526,-0.36481 z"
         style="font-size:12.69999981px;fill:#666666;stroke-width:0.26458332"
         id="path7109" />
      <path
         d="m 278.68076,-93.273153 -1.122,-0.316612 0.19704,-0.698269 q -0.60131,0.281355 -1.19218,0.36591 -0.59087,0.08455 -1.20559,-0.08891 -1.19362,-0.336821 -1.6385,-1.454635 -0.43892,-1.116129 0.0208,-2.745422 0.23914,-0.847472 0.6648,-1.442568 0.43163,-0.593414 0.97479,-0.942724 0.53382,-0.33905 1.13832,-0.42621 0.61046,-0.0855 1.18937,0.0779 0.52519,0.1482 0.89902,0.37611 0.37552,0.22195 0.75745,0.581013 l 0.81511,-2.888563 1.122,0.31661 z m -0.65887,-1.957842 1.07951,-3.825557 q -0.39632,-0.330908 -0.73251,-0.50954 -0.33619,-0.178632 -0.75993,-0.298203 -0.94296,-0.266085 -1.65341,0.242202 -0.71044,0.508291 -1.05063,1.713849 -0.33514,1.187653 -0.10445,1.922856 0.23236,0.729234 1.12758,0.98185 0.47745,0.134728 1.02578,0.06394 0.55001,-0.07675 1.06806,-0.291398 z"
         style="font-size:12.69999981px;fill:#666666;stroke-width:0.26458332"
         id="path7111" />
      <path
         d="m 287.42764,-93.956883 -4.84683,-1.598307 q -0.20003,0.60659 -0.16701,1.120264 0.035,0.507784 0.25783,0.901227 0.21302,0.383669 0.58455,0.662896 0.37741,0.28117 0.88389,0.448186 0.67137,0.221394 1.43602,0.179714 0.77249,-0.04563 1.14651,-0.209591 l 0.0589,0.01942 -0.39812,1.207291 q -0.63716,0.05107 -1.27263,0.01782 -0.63546,-0.03325 -1.27739,-0.244937 -1.6372,-0.53989 -2.26462,-1.726234 -0.62547,-1.192233 -0.0875,-2.823548 0.53212,-1.613648 1.72229,-2.272447 1.19605,-0.656858 2.63302,-0.182997 1.33097,0.438903 1.7931,1.453211 0.46803,1.01625 -0.004,2.447331 z m -0.79807,-1.203443 q 0.28153,-0.873548 0.003,-1.494287 -0.2726,-0.618797 -1.15599,-0.910104 -0.88927,-0.29325 -1.59214,0.05611 -0.69699,0.351298 -1.02401,1.105371 z"
         style="font-size:12.69999981px;fill:#666666;stroke-width:0.26458332"
         id="path7113" />
      <path
         d="m 294.64924,-91.260842 -4.77436,-1.8033 q -0.22569,0.59752 -0.21457,1.112134 0.0133,0.508813 0.21921,0.911391 0.19649,0.392395 0.55578,0.687193 0.3651,0.296989 0.864,0.485426 0.66133,0.249789 1.42707,0.240717 0.77372,-0.01268 1.15439,-0.160568 l 0.058,0.02191 -0.44918,1.189238 q -0.63876,0.02389 -1.27223,-0.0364 -0.63348,-0.06029 -1.2658,-0.299124 -1.61273,-0.609134 -2.18904,-1.821124 -0.57412,-1.217792 0.0328,-2.824714 0.60037,-1.589518 1.81752,-2.197027 1.22294,-0.605318 2.63843,-0.07068 1.31106,0.495195 1.72957,1.528267 0.42432,1.035262 -0.10813,2.444944 z m -0.74609,-1.236344 q 0.31848,-0.860763 0.0667,-1.492801 -0.246,-0.629847 -1.11618,-0.958516 -0.87597,-0.330861 -1.59309,-0.01176 -0.71131,0.321293 -1.07016,1.060753 z"
         style="font-size:12.69999981px;fill:#666666;stroke-width:0.26458332"
         id="path7115" />
      <path
         d="m 302.10551,-88.325715 q -0.33217,0.775191 -0.83046,1.324031 -0.49584,0.54314 -1.09104,0.814325 -0.55694,0.260598 -1.17007,0.27448 -0.60499,0.01063 -1.17498,-0.233613 -0.4959,-0.212488 -0.85419,-0.494197 -0.35259,-0.279265 -0.67099,-0.685557 l -1.14303,2.66757 -1.07159,-0.459169 3.73441,-8.715203 1.07159,0.459169 -0.28576,0.666893 q 0.58136,-0.175917 1.21404,-0.188172 0.64081,-0.01551 1.24501,0.24338 1.15138,0.493362 1.41609,1.639 0.27285,1.14238 -0.38903,2.687063 z m -1.118,-0.445324 q 0.49336,-1.151387 0.3443,-1.889905 -0.14906,-0.738519 -0.96415,-1.08778 -0.46169,-0.197833 -1.01457,-0.198611 -0.55288,-7.78e-4 -1.11959,0.140939 l -1.54603,3.60806 q 0.36807,0.400588 0.66121,0.613904 0.29885,0.215757 0.71494,0.394051 0.89489,0.383455 1.65538,-0.0058 0.76049,-0.389263 1.26851,-1.57485 z"
         style="font-size:12.69999981px;fill:#666666;stroke-width:0.26458332"
         id="path7117" />
      <path
         d="m 309.03141,-84.796969 -4.59853,-2.213586 q -0.27703,0.575513 -0.31092,1.089131 -0.0312,0.50803 0.13873,0.92706 0.16145,0.408062 0.49361,0.733128 0.33775,0.327756 0.81827,0.559066 0.63698,0.306621 1.40058,0.364493 0.77188,0.05497 1.16401,-0.05908 l 0.0559,0.0269 -0.55138,1.14544 q -0.6384,-0.03202 -1.26418,-0.14743 -0.62578,-0.115413 -1.23482,-0.408586 -1.55333,-0.747724 -2.02154,-2.005437 -0.46551,-1.2633 0.27953,-2.811041 0.73696,-1.530978 2.00253,-2.029809 1.27117,-0.496141 2.63452,0.160135 1.26278,0.607862 1.58942,1.673551 0.33223,1.068379 -0.32136,2.426145 z m -0.63521,-1.296809 q 0.39248,-0.829641 0.19687,-1.481264 -0.19003,-0.648933 -1.02815,-1.052382 -0.84372,-0.406137 -1.58597,-0.150918 -0.73667,0.257909 -1.15876,0.963185 z"
         style="font-size:12.69999981px;fill:#666666;stroke-width:0.26458332"
         id="path7119" />
      <path
         d="m 315.60884,-83.947972 -0.0548,-0.02894 q -0.20141,-0.176389 -0.40921,-0.314083 -0.19943,-0.140285 -0.49559,-0.296555 -0.47716,-0.251769 -1.03426,-0.272279 -0.55422,-0.02599 -1.14208,0.09152 l -2.29486,4.349219 -1.03109,-0.544052 3.23248,-6.126203 1.03109,0.544053 -0.47749,0.904945 q 0.87471,-0.16949 1.44797,-0.126436 0.58164,0.04046 1.06976,0.29802 0.26874,0.141801 0.38072,0.221921 0.11487,0.07463 0.33593,0.240357 z"
         style="font-size:12.69999981px;fill:#666666;stroke-width:0.26458332"
         id="path7121" />
    </g>
    <path
       inkscape:connector-curvature="0"
       id="path4971"
       d="M 317.15483,55.974979 131.3612,105.75824"
       style="fill:#000000;stroke:#000000;stroke-width:1.68799996;stroke-linecap:butt;stroke-linejoin:miter;stroke-miterlimit:4;stroke-dasharray:none;stroke-opacity:1;marker-start:url(#marker12034);marker-end:url(#marker12182)" />
    <path
       style="fill:#000000;stroke:#000000;stroke-width:1.68799996;stroke-linecap:butt;stroke-linejoin:miter;stroke-miterlimit:4;stroke-dasharray:none;stroke-opacity:1;marker-start:url(#marker7776);marker-end:url(#marker1795)"
       d="M 131.35889,55.992463 317.15254,105.77571"
       id="path7772"
       inkscape:connector-curvature="0" />
    <path
       style="fill:#000000;stroke:#000000;stroke-width:1.68799996;stroke-linecap:butt;stroke-linejoin:miter;stroke-miterlimit:4;stroke-dasharray:none;stroke-opacity:1;marker-start:url(#marker12470);marker-end:url(#marker12630)"
       d="M 156.23304,12.909166 292.24343,148.91954"
       id="path12466"
       inkscape:connector-curvature="0" />
    <path
       style="fill:#000000;stroke:#000000;stroke-width:1.68799996;stroke-linecap:butt;stroke-linejoin:miter;stroke-miterlimit:4;stroke-dasharray:none;stroke-opacity:1;marker-start:url(#marker12858);marker-end:url(#marker13030)"
       d="M 199.31634,-11.964988 249.0996,173.82865"
       id="path12854"
       inkscape:connector-curvature="0" />
    <path
       style="fill:#000000;stroke:#000000;stroke-width:1.68799996;stroke-linecap:butt;stroke-linejoin:miter;stroke-miterlimit:4;stroke-dasharray:none;stroke-opacity:1;marker-start:url(#marker13294);marker-end:url(#marker13478)"
       d="M 249.06464,-11.96499 199.2814,173.82865"
       id="path13290"
       inkscape:connector-curvature="0" />
    <path
       style="fill:#000000;stroke:#000000;stroke-width:1.68799996;stroke-linecap:butt;stroke-linejoin:miter;stroke-miterlimit:4;stroke-dasharray:none;stroke-opacity:1;marker-start:url(#marker13790);marker-end:url(#marker13986)"
       d="M 292.2632,12.861416 156.25283,148.87181"
       id="path13786"
       inkscape:connector-curvature="0" />
    <path
       style="opacity:0.6;fill:#ff5555;stroke:#ff0000;stroke-width:2.5;stroke-linecap:butt;stroke-linejoin:miter;stroke-miterlimit:4;stroke-dasharray:none;stroke-opacity:1"
       d="m 150.61222,61.037616 5.62083,-48.128452 45.67168,-15.2149536 47.15991,-9.6592004 -13.36996,81.394953 62.14166,-8.278537 -58.02311,23.787648 -15.59775,-4.022429 1.59038,5.978689 v 0 l -1.3258,-6.243272 -54.15267,53.963908 38.30787,-49.563276 z"
       id="path1817"
       inkscape:connector-curvature="0" />
  </g>
</svg>
